<?xml version="1.0" encoding="UTF-8" standalone="no"?>
<!-- Created with Inkscape (http://www.inkscape.org/) -->

<svg
   width="25mm"
   height="35mm"
   viewBox="0 0 25 35"
   version="1.1"
   id="svg1008"
   inkscape:version="1.1.2 (b8e25be8, 2022-02-05)"
   sodipodi:docname="albatros.svg"
   xmlns:inkscape="http://www.inkscape.org/namespaces/inkscape"
   xmlns:sodipodi="http://sodipodi.sourceforge.net/DTD/sodipodi-0.dtd"
   xmlns="http://www.w3.org/2000/svg"
   xmlns:svg="http://www.w3.org/2000/svg">
  <sodipodi:namedview
     id="namedview1010"
     pagecolor="#ffffff"
     bordercolor="#666666"
     borderopacity="1.0"
     inkscape:pageshadow="2"
     inkscape:pageopacity="0.0"
     inkscape:pagecheckerboard="0"
     inkscape:document-units="mm"
     showgrid="false"
     width="35mm"
     inkscape:zoom="0.64052329"
     inkscape:cx="-74.938727"
     inkscape:cy="579.99452"
     inkscape:window-width="1312"
     inkscape:window-height="969"
     inkscape:window-x="0"
     inkscape:window-y="25"
     inkscape:window-maximized="0"
     inkscape:current-layer="layer1" />
  <defs
     id="defs1005" />
  <g
     inkscape:label="Layer 1"
     inkscape:groupmode="layer"
     id="layer1">
    <path
       style="fill:#000000;fill-opacity:1;stroke:#000000;stroke-width:0.5;stroke-linecap:butt;stroke-linejoin:miter;stroke-miterlimit:4;stroke-dasharray:none;stroke-opacity:1"
       d="m 19.523104,1.5907879 -0.12971,0.20755 h -0.2335 l -0.10377,0.28538 -0.23349,0.20755 -0.12972,0.2335 -0.36322,0.31132 -0.0778,0.15566 -0.25944,0.12972 -0.15567,0.25943 -0.23349,0.28539 -0.0259,0.20754 -0.2335,0.36322 -0.0259,0.23349 -0.20754,0.23349 -0.026,0.2335 -0.23349,0.10377 -0.12972,0.12972 -0.0778,0.23349 -0.33727,0.1816 -0.46698,0.2335 -0.38916,0.12972 -0.28538,0.15566 -0.33727,0.12972 -0.31132,0.12972 -0.28538,0.23349 -0.18161,0.12971 -0.1816,0.2335 -0.12972,0.12972 -0.33727,0.25943 -0.20755,0.10378 -0.31132,0.20755 -0.20755,0.18161 -0.28538,0.25943 -0.15566,0.2335 -0.25944,0.20754 -0.15566,0.2335 -0.0778,0.25944 -0.15567,0.38915 -0.10377,0.25943 -0.10377,0.2335 -0.12972,0.2334901 -0.15566,0.28538 0.0259,0.12972 0.026,0.31132 -0.1816,0.25944 -0.23349,0.25944 -0.28539,0.44104 -0.23349,0.20755 -0.1816,0.10377 -0.2853903,0.36322 -0.1816,0.0778 -0.4151,0.0519 -0.51887,0.10378 -0.49293,0.10377 -0.44104,0.0778 -0.49293,0.0519 h -0.51888 l -0.31132,0.0259 -0.59671,-0.10377 -0.41509,-0.0778 -0.54482,-0.0519 -0.38916,-0.0259 -0.25943,0.0259 -0.54482,0.0519 -0.62265,0.0778 -0.38915,0.12972 -0.33727,0.10377 -0.10378,0.12972 -0.0259,0.10377 -0.12971,0.25944 -0.0778,0.0778 0.10378,0.20755 0.15566,0.28538 0.0778,0.20755 0.15566,0.23349 0.25944,0.0778 h 0.5967 l 0.49293,0.026 0.46699,-0.026 h 0.28538 l 0.33727,0.0778 0.1816,0.12972 0.44105,0.0778 0.51887,0.026 0.31132,0.12972 0.4151,0.15566 0.51888,0.15566 0.15565,0.10377 0.20755,0.0778 0.15567,0.0778 -0.15567,0.31132 -0.25943,0.12972 -0.18161,0.33727 -0.15566,0.12972 -0.12972,0.23349 v 0.44104 l -0.0778,0.38916 0.10378,0.31132 0.0259,0.12972 -0.15566,0.31132 v 0.31132 l 0.0519,0.31133 -0.15566,0.36321 0.0778,0.4151 0.0778,0.44104 -0.10377,0.38916 0.0778,0.41509 -0.0259,0.4151 0.0778,0.2335 -0.10378,0.23349 -0.026,0.49293 -0.026,0.28538 v 0.25943 l -0.0259,0.36322 -0.25943,0.46698 v 0.25944 l -0.36321,0.33726 0.0259,0.25944 -0.28538,0.51888 -0.0519,0.31132 -0.31132,0.49293 -0.12972,0.31132 -0.0259,0.33727 -0.18161,0.36321 -0.0778,0.49293 -0.15566,0.28538 -0.20755,0.518866 -0.18161,0.46699 0.0519,0.33727 -0.10378,0.36321 0.026,0.33727 0.026,0.25943 -0.12971,0.44105 -0.10378,0.33726 v 0.31132 l 0.1816,0.0778 -0.0259,0.4151 v 0.20754 l 0.12971,0.0778 v 0.23349 l 0.49293,-0.20755 0.51888,-0.28538 0.64859,-0.51888 0.70048,-0.64858 0.85614,-0.88209 0.64859,-0.70048 0.51887,-0.70047 0.4151,-0.674536 0.2335,-0.38916 0.31132,-0.33726 0.4929303,-0.62265 0.36321,-0.54482 0.10377,-0.44104 0.28538,-0.62265 0.12972,-0.49293 0.31133,-0.64859 0.23349,-0.36321 0.33727,-0.67453 0.15566,-0.46699 0.23349,-0.33727 0.12972,-0.38915 -0.1816,-0.67454 -0.0519,-0.57076 -0.026,-0.57076 0.026,-0.77831 0.0259,-0.77831 0.10378,-0.44104 0.15566,-0.28538 0.0519,-0.12972 0.38916,0.0259 0.8302,0.0778 h 0.51887 l 0.54482,0.026 0.57076,0.0259 0.57076,-0.0519 0.57076,0.10378 h 0.4151 l 0.33726,-0.10378 0.46699,-0.0259 0.49293,-0.12972 0.51887,-0.0519 0.44105,-0.0259 h 0.33726 l 0.4151,0.10378 0.33726,0.0519 0.38916,0.20755 0.4151,0.20755 0.31133,0.15566 0.31132,0.18161 0.33727,0.20755 0.12971,0.0259 0.10378,0.2335 0.25944,-0.15567 0.12971,-0.28538 -0.0519,-0.31132 -0.0778,-0.25944 -0.12972,-0.1816 -0.18161,-0.12972 -0.31132,-0.12972 -0.51887,-0.25944 -0.38916,-0.31132 -0.25944,-0.31132 -0.25943,-0.36322 -0.23349,-0.38915 -0.12972,-0.33727 -0.25944,-0.31132 -0.46699,-0.28538 -0.38915,-0.28538 -0.46699,-0.25944 -0.44104,-0.18161 -0.23349,-0.0778 -0.2335,-0.10377 -0.46698,-0.28538 -0.38915,-0.20755 -0.2335,-0.12972 -0.1816,-0.38915 -0.026,-0.38916 0.026,-0.46699 0.0519,-0.54481 0.0519,-0.67454 0.20755,-0.7523601 0.20755,-0.57076 0.44104,-0.46699 0.54482,-0.49293 0.67453,-0.49293 0.57076,-0.4151 0.44105,-0.28538 0.49292,-0.23349 0.36321,-0.20755 0.18161,-0.4151 0.25944,-0.49293 0.12971,-0.4151 0.12972,-0.28538 v -0.38915 l -0.1816,-0.31133 -0.10377,-0.33726 -0.026,-0.4151 -0.1816,-0.4151 -0.36321,-0.49293 -0.36322,-0.44104 -0.20754,-0.20755 z"
       id="path402" />
  </g>
</svg>
