<?xml version="1.0" encoding="UTF-8" standalone="no"?>
<!-- Created with Inkscape (http://www.inkscape.org/) -->

<svg
   width="32mm"
   height="22mm"
   viewBox="0 0 32 22"
   version="1.1"
   id="svg1008"
   inkscape:version="1.1.2 (b8e25be8, 2022-02-05)"
   sodipodi:docname="paraca.svg"
   xmlns:inkscape="http://www.inkscape.org/namespaces/inkscape"
   xmlns:sodipodi="http://sodipodi.sourceforge.net/DTD/sodipodi-0.dtd"
   xmlns="http://www.w3.org/2000/svg"
   xmlns:svg="http://www.w3.org/2000/svg">
  <sodipodi:namedview
     id="namedview1010"
     pagecolor="#ffffff"
     bordercolor="#666666"
     borderopacity="1.0"
     inkscape:pageshadow="2"
     inkscape:pageopacity="0.0"
     inkscape:pagecheckerboard="0"
     inkscape:document-units="mm"
     showgrid="false"
     width="30mm"
     inkscape:zoom="0.64052329"
     inkscape:cx="-74.938727"
     inkscape:cy="579.99452"
     inkscape:window-width="1312"
     inkscape:window-height="969"
     inkscape:window-x="0"
     inkscape:window-y="25"
     inkscape:window-maximized="0"
     inkscape:current-layer="layer1" />
  <defs
     id="defs1005" />
  <g
     inkscape:label="Layer 1"
     inkscape:groupmode="layer"
     id="layer1">
    <path
       style="fill:#000000;fill-opacity:1;stroke:#000000;stroke-width:0.5;stroke-linecap:butt;stroke-linejoin:miter;stroke-miterlimit:4;stroke-dasharray:none;stroke-opacity:1"
       d="m 22.741698,7.6166619 -0.1739,-0.27051 0.11594,-0.19323 -0.058,-0.4251 -0.54103,-0.56035 v -0.599 l -0.32849,-0.36713 -0.0386,-0.27052 -0.0386,-0.77291 -0.11594,-0.19322 0.11594,-0.52171 0.19323,-0.0386 0.4251,-0.15459 0.23186,-0.11593 0.2512,0.0386 0.15458,-0.0773 0.57968,0.0193 0.44442,-0.058 0.13526,0.0386 h 0.27052 l 0.13525,0.27052 0.4251,0.25119 0.2512,0.0966 0.42509,0.28984 0.21255,0.058 0.13526,-0.0773 0.0193,-0.2512 -0.19322,-0.1739 -0.32849,-0.25119 0.0387,-0.17391 h 0.32848 l 0.34781,0.0773 0.32848,0.11594 0.23187,0.11593 0.23188,0.0387 0.11593,-0.0193 -0.0193,-0.1739 0.0966,-0.13526 -0.0386,-0.19323 -0.15458,-0.11593 0.0386,-0.15458 -0.0386,-0.11594 -0.21255,-0.11594 -0.28984,-0.23187 -0.32848,-0.19322 -0.44443,-0.0966 -0.3478,-0.058 -0.46375,0.0966 -0.23187,-0.0966 -0.0966,0.0966 -0.40578,-0.0387 -0.25119,-0.23188 -0.28984,0.0193 -0.36713,-0.0386 h -0.46374 l -0.44442,-0.0193 -0.30917,0.0386 -0.28983,0.0193 -0.54104,-0.0193 -0.36713,-0.058 -0.25119,0.19323 -0.36713,0.30916 -0.17391,0.21255 -0.21254,0.13526 -0.11594,0.19323 -0.0773,0.3478 -0.0773,0.36713 -0.0193,0.52171 v 0.599 0.2512 0.32848 l 0.0386,0.21255 0.11594,0.17391 v 0.1739 l 0.0966,0.21255 v 0.23187 l 0.058,0.19323 v 0.13525 l -0.13526,0.21255 -0.28984,0.0386 -0.328476,0.0773 -0.54104,0.0966 -0.40577,0.0193 -0.40578,0.0773 -0.38645,0.0773 h -0.4251 -0.25119 l -0.34781,0.11594 -0.42509,0.13526 -0.4251,0.21255 -0.27052,0.28984 -0.27052,0.21254 -0.25119,0.21255 -0.40578,0.21255 -0.21255,0.19323 -0.30916,0.0966 -0.0966,0.0773 -0.058,0.19323 -0.0773,0.13525 -0.0386,0.21255 -0.058,0.23187 -0.058,0.17391 -0.32848,0.0387 -0.23188,0.13525 -0.19322,-0.0966 -0.21255,0.0386 -0.28984,-0.21255 -0.40578,0.11594 -0.19322,0.0773 -0.058,-0.23187 -0.28984,-0.0193 -0.25119,-0.11593 -0.40578,-0.13526 -0.40577,-0.17391 -0.4830695,-0.11593 -0.21255,-0.058 -0.15458,-0.19323 -0.23187,0.0193 -0.11593,-0.19322 -0.34781,0.0193 0.058,-0.44442 0.17391,-0.54104 0.058,-0.46374 0.13525,-0.46374 -0.0386,-0.54104 0.0386,-0.54103 -0.25119,-0.40577 -0.25119,-0.32849 h -0.0966 l -0.21254,-0.28984 -0.36714,-0.13526 -0.28983,-0.13525 -0.50239,-0.54104 -0.0966,-0.23187 -0.28984,-0.30916 -0.0966,-0.058 -0.21255,-0.28984 -0.1739,-0.0193 -0.23187,-0.21255 -0.21255,0.0387 -0.21255,-0.13526 -0.50239,0.0193 -0.44442,-0.0386 -0.32848,0.21255 -0.21255,0.34781 0.0386,0.25119 0.17391,0.32848 0.40577,0.4251 0.34781,0.38645 0.46374,0.28984 0.21255,0.2512 0.25119,0.23187 0.11594,0.28984 0.36713,0.30916 -0.0386,0.23187 -0.13525,0.058 v 0.19323 l 0.0966,0.1739 -0.0773,0.2512 -0.0193,0.32848 -0.0773,0.4251 -0.0387,0.57968 0.0193,0.27052 0.0193,0.42509 0.15459,0.28984 0.1739,0.23188 0.34781,0.36712 0.30916,0.3091701 0.67629,0.38645 0.44442,0.32848 0.36713,0.21255 0.27052,0.23187 0.36713,0.2512 0.599,0.4251 0.4250895,0.28983 0.30917,0.21255 0.15458,0.058 0.0773,0.15458 0.38645,0.30917 0.38645,0.0966 0.13526,0.19322 -0.28984,0.21255 -0.15458,0.30916 -0.27052,0.36713 -0.28983,0.36713 -0.32849,0.2512 -0.5796795,0.56035 -0.3478,0.28984 -0.2512,0.27052 -0.19323,0.0773 -0.30916,-0.30916 -0.44442,-0.30916 -0.4251,-0.36713 -0.42509,-0.4251 -0.19323,-0.17391 -0.058,-0.44442 -0.19322,-0.0773 -0.32849,-0.27051 -0.11594,-0.13526 0.0773,-0.4251 0.0386,-0.4251 0.058,-0.36713 -0.11594,-0.19322 -0.32848,-0.19323 -0.38645,-0.058 -0.13526,0.11594 -0.15458,-0.13526 -0.32849,0.0386 -0.44442,0.30916 -0.40577,0.34781 -0.058,0.1739 v 0.13526 l -0.058,0.13526 -0.36713,0.15458 -0.32848,0.0387 -0.56036,0.11593 -0.46374,0.17391 -0.21255,0.11594 v 0.13525 l -0.19323,-0.0193 -0.30916,0.4251 -0.0193,0.15458 -0.13526,0.11594 -0.13526,0.34781 0.0193,0.42509 0.15459,0.34781 0.32848,0.13526 0.4251,0.0193 0.27051,-0.0193 0.4251,-0.19323 0.599,-0.30916 0.13526,0.11594 0.19323,-0.21255 0.25119,0.0386 0.36713,0.0966 -0.0193,0.25119 0.27052,0.48307 0.30916,0.32848 0.30916,0.0966 0.28984,0.0966 0.0773,0.28984 0.0966,0.15458 0.0386,0.30917 0.23187,0.54103 0.13526,0.4251 0.13526,0.52171 0.15458,0.38645 0.0966,0.36713 0.28984,0.2512 0.27052,0.23187 0.25119,0.0773 h 0.36713 l 0.48307,-0.2512 0.50239,-0.40577 0.32848,-0.23187 0.56036,-0.23187 0.5989995,-0.34781 0.75358,-0.38645 0.75358,-0.48307 0.54104,-0.34781 0.54103,-0.32848 0.23187,-0.19323 0.27052,-0.28984 0.28984,-0.0386 0.1739,-0.0773 0.0966,-0.21255 0.36714,0.0193 0.46374,-0.13525 0.27052,-0.2512 0.48306,-0.11594 0.32848,-0.32848 0.69562,-0.32849 0.4251,-0.0773 0.54103,-0.21254 0.48307,-0.058 0.599,-0.13526 0.637636,-0.2512 0.36713,-0.27051 0.34781,0.0386 0.40578,-0.17391 0.38645,-0.13526 0.25119,0.058 h 0.13526 v 0.32849 l 0.30917,0.75358 0.30916,0.59901 0.1739,0.25119 0.27052,0.15458 0.4251,0.0773 h 0.23187 l 0.61832,0.1739 0.61832,0.058 0.73426,0.0386 0.40578,0.0773 h 0.36713 l 0.48307,0.0193 0.23187,0.058 0.21255,0.0386 0.23187,0.23188 0.27051,0.0966 0.21255,-0.0386 0.2512,-0.28984 0.28984,0.21255 0.3478,0.0193 0.40578,0.0386 0.27051,0.0193 0.36714,0.13525 0.28983,0.27052 0.30917,0.13526 0.15458,-0.0193 0.0966,-0.27052 -0.058,-0.11594 -0.32848,-0.30916 0.058,-0.0386 0.13526,0.058 0.21254,0.0773 0.30917,0.0193 0.15458,-0.0773 -0.0193,-0.23187 -0.0386,-0.0773 -0.0966,-0.0193 -0.0773,-0.13526 0.13526,-0.0773 v -0.1739 l -0.0773,-0.15458 -0.15459,-0.13526 -0.13526,-0.0966 0.13526,-0.0386 v -0.1739 l -0.19322,-0.23187 -0.19323,-0.0966 h -0.28984 l -0.30916,0.0387 -0.23187,0.0193 -0.0193,-0.0773 0.19322,-0.17391 0.17391,-0.15458 0.0386,-0.23187 -0.058,-0.13526 h -0.21254 l -0.40578,0.058 -0.32848,0.15459 -0.2512,0.11593 -0.3478,0.30916 h -0.23188 l -0.0386,0.0966 -0.13526,-0.30916 -0.40577,-0.0386 -0.19323,-0.11593 -0.69562,-0.11594 -0.50238,-0.11594 -0.40578,-0.0386 -0.40578,-0.0773 h -0.3478 -0.36713 l -0.23187,-0.38645 0.0966,-0.28984 -0.0193,-0.19323 -0.28984,-0.27051 0.23187,-0.28984 0.0386,-0.38645 0.0386,-0.34781 0.1739,-0.30916 -0.0193,-0.4251 -0.28984,-0.1739 -0.23187,-0.44443 -0.058,-0.21254 0.19322,-0.13526 0.1739,-0.0193 0.058,0.1739 0.27052,0.11594 0.13526,-0.0773 0.0386,-0.13526 0.2512,0.11593 0.27052,0.0386 0.23186,-0.058 0.058,-0.15458 0.0193,-0.1739001 0.11594,-0.13526 v -0.0966 l 0.15458,-0.058 0.13526,-0.23187 0.21255,-0.058 0.19322,-0.0386 0.0773,-0.15458 -0.13526,-0.21255 -0.0387,-0.0773 0.2512,-0.4251 0.0193,-0.2512 0.13526,-0.21254 0.11593,-0.32849 v -0.30916 l -0.15458,-0.25119 -0.2512,-0.34781 -0.38645,-0.34781 -0.38645,-0.27052 -0.50239,-0.21254 -0.56035,-0.058 -0.4251,0.0773 -0.40578,0.21254 -0.27051,0.28984 -0.15458,0.17391 -0.0966,0.23187 -0.11593,0.28984 -0.0193,0.19323 v 0.1739 z"
       id="path1061" />
  </g>
</svg>
