<?xml version="1.0" encoding="UTF-8" standalone="no"?>
<!-- Created with Inkscape (http://www.inkscape.org/) -->

<svg
   width="45mm"
   height="38mm"
   viewBox="0 0 45 38"
   version="1.1"
   id="svg1115"
   inkscape:version="1.1.2 (b8e25be8, 2022-02-05)"
   sodipodi:docname="planador.svg"
   xmlns:inkscape="http://www.inkscape.org/namespaces/inkscape"
   xmlns:sodipodi="http://sodipodi.sourceforge.net/DTD/sodipodi-0.dtd"
   xmlns="http://www.w3.org/2000/svg"
   xmlns:svg="http://www.w3.org/2000/svg">
  <sodipodi:namedview
     id="namedview1117"
     pagecolor="#ffffff"
     bordercolor="#666666"
     borderopacity="1.0"
     inkscape:pageshadow="2"
     inkscape:pageopacity="0.0"
     inkscape:pagecheckerboard="0"
     inkscape:document-units="mm"
     showgrid="false"
     width="40mm"
     inkscape:zoom="0.64052329"
     inkscape:cx="-74.938727"
     inkscape:cy="579.99452"
     inkscape:window-width="1312"
     inkscape:window-height="969"
     inkscape:window-x="0"
     inkscape:window-y="25"
     inkscape:window-maximized="0"
     inkscape:current-layer="layer1" />
  <defs
     id="defs1112" />
  <g
     inkscape:label="Layer 1"
     inkscape:groupmode="layer"
     id="layer1">
    <path
       style="fill:#ee5353;fill-opacity:1;stroke:#000000;stroke-width:0.5;stroke-linecap:butt;stroke-linejoin:miter;stroke-miterlimit:4;stroke-dasharray:none;stroke-opacity:1"
       d="m 3.4174606,13.134307 -1.78504,0.0787 0.13126,1.36503 -0.31501,0.23625 0.31501,0.13126 0.34125,4.75134 2.10005,0.73502 11.4452304,0.68251 4.9351,0.36751 4.27883,0.55126 -1.96879,2.41505 -2.9663,3.17631 -2.96631,2.94006 -2.2838,2.15255 -1.28628,1.20752 -0.60376,-1.36503 -0.60376,-1.31252 -0.55126,-0.89252 -0.44626,-0.49876 -0.47251,-0.28876 -0.18375,-0.0525 1.70628,5.06635 0.18375,0.210006 1.89004,0.21 0.52501,-0.18375 2.57255,-1.522526 2.65131,-1.83754 2.25754,-1.78504 2.20505,-1.99504 1.33877,-1.31252 1.26003,-1.39128 1.12878,-1.36503 0.63001,-0.65626 1.33878,0.42001 1.18127,0.34125 0.91877,0.23626 0.89252,0.1575 1.05002,0.105 h 0.81376 1.02377 l 1.02377,-0.0262 1.05002,-0.105 0.99752,-0.1575 1.02378,-0.23626 1.05002,-0.28875 0.70876,-0.26251 0.44626,-0.1575 0.13125,-0.26251 -0.52501,-0.49876 -0.55126,-0.36751 -0.36751,-0.23625 -0.55126,-0.31501 -0.49876,-0.28876 -0.315,-0.13125 -1.33878,-0.52501 -1.65378,-0.52501 -1.28628,-0.39376 -1.49628,-0.315 -1.44378,-0.18376 -1.07627,-0.13125 0.49876,-1.36503 0.68251,-1.75878 0.55126,-1.44378 0.36751,-0.99752 0.49876,-1.52253 0.42001,-1.49628 0.42001,-1.6537797 0.28875,-1.44378 0.0788,-1.23378 0.0525,-1.02377 -0.42001,-0.57751 -0.26251,-0.63001 -0.28875,-0.81377 -0.31501,-0.57751 -0.28876,-0.42001 -0.42,-0.23625 0.86626,3.04506 -3.43882,7.1926397 -3.78007,7.24515 -1.91629,0.23625 -1.44378,0.23626 -1.10252,0.13125 -1.81129,0.105 -3.70132,0.0787 -3.22882,0.0525 -3.15006,-0.0262 -2.2313004,-0.105 h -0.34125 l -0.34126,-0.34126 -1.68004,-6.01137 0.99752,-1.52253 -0.2625,-0.2625 h -0.94502 z"
       id="path3986" />
  </g>
</svg>
