<svg xmlns="http://www.w3.org/2000/svg" width="1000" height="800"><rect width="1000" height="800" x="0" y="0" fill="#FFFFFF" id="backgorund"/><g transform="translate(20,20)" id="visualization"><g><rect x="620" y="-1.1368683772161603e-13" height="25.698938382401252" width="10" fill="black"><title>Poor: 11289</title></rect><rect x="620" y="33.69893838240114" height="78.94074641567255" width="10" fill="black"><title>Fair: 34677</title></rect><rect x="620" y="120.63968479807369" height="152.1630294407355" width="10" fill="black"><title>Excellent: 66842</title></rect><rect x="620" y="280.8027142388092" height="212.0042902484405" width="10" fill="black"><title>Good: 93129</title></rect><rect x="620" y="500.8070044872497" height="259.1929955127503" width="10" fill="black"><title>Very good: 113858</title></rect><rect x="310" y="12" height="300.2830688409763" width="10" fill="black"><title>Yes: 131908</title></rect><rect x="0" y="12" height="345.99890554886724" width="10" fill="black"><title>Male: 151990</title></rect><rect x="930" y="12" height="345.99890554886724" width="10" fill="black"><title>Male: 151990</title></rect><rect x="0" y="365.99890554886724" height="382.00109445113276" width="10" fill="black"><title>Female: 167805</title></rect><rect x="930" y="365.99890554886724" height="382.00109445113276" width="10" fill="black"><title>Female: 167805</title></rect><rect x="310" y="320.2830688409763" height="427.7169311590237" width="10" fill="black"><title>No: 187887</title></rect></g><g fill="none" stroke-opacity="0.8"><g style="mix-blend-mode: multiply;"><path d="M10,437.1712378242312C160,437.1712378242312,160,241.11073656561237,310,241.11073656561237" stroke="#ff006d" stroke-width="142.34466455072783"/><title>Female → Yes: 62529</title></g><g style="mix-blend-mode: multiply;"><path d="M10,628.1717850497976C160,628.1717850497976,160,628.1717850497976,310,628.1717850497976" stroke="#ff006d" stroke-width="239.65642990040496"/><title>Female → No: 105276</title></g><g style="mix-blend-mode: multiply;"><path d="M10,90.96920214512423C160,90.96920214512423,160,90.96920214512423,310,90.96920214512423" stroke="#01befe" stroke-width="157.93840429024846"/><title>Male → Yes: 69379</title></g><g style="mix-blend-mode: multiply;"><path d="M10,263.9686549195579C160,263.9686549195579,160,414.3133194702857,310,414.3133194702857" stroke="#01befe" stroke-width="188.0605012586188"/><title>Male → No: 82611</title></g><g style="mix-blend-mode: multiply;"><path d="M320,263.31531137134726C470,263.31531137134726,470,549.7747619568787,620,549.7747619568787" stroke="#e76f51" stroke-width="97.93551493925797"/><title>Yes → Very good: 43021</title></g><g style="mix-blend-mode: multiply;"><path d="M320,667.3712597132538C470,667.3712597132538,470,679.3712597132538,620,679.3712597132538" stroke="#e9c46a" stroke-width="161.25748057349242"/><title>No → Very good: 70837</title></g><g style="mix-blend-mode: multiply;"><path d="M320,49.93034912991135C470,49.93034912991135,470,55.30708109882885,620,55.30708109882885" stroke="#e76f51" stroke-width="43.21628543285543"/><title>Yes → Fair: 18984</title></g><g style="mix-blend-mode: multiply;"><path d="M320,529.3199956221955C470,529.3199956221955,470,435.38448068293746,620,435.38448068293746" stroke="#e9c46a" stroke-width="114.84504760862428"/><title>No → Good: 50449</title></g><g style="mix-blend-mode: multiply;"><path d="M320,347.52203130130243C470,347.52203130130243,470,94.77745430666513,620,94.77745430666513" stroke="#e9c46a" stroke-width="35.72446098281712"/><title>No → Fair: 15693</title></g><g style="mix-blend-mode: multiply;"><path d="M320,165.76793258181024C470,165.76793258181024,470,329.3823355587173,620,329.3823355587173" stroke="#e76f51" stroke-width="97.15924263981614"/><title>Yes → Good: 42680</title></g><g style="mix-blend-mode: multiply;"><path d="M320,20.16110320674182C470,20.16110320674182,470,8.161103206741705,620,8.161103206741705" stroke="#e76f51" stroke-width="16.322206413483638"/><title>Yes → Poor: 7170</title></g><g style="mix-blend-mode: multiply;"><path d="M320,418.64086680529715C470,418.64086680529715,470,219.546109226223,620,219.546109226223" stroke="#e9c46a" stroke-width="106.51321002517238"/><title>No → Excellent: 46789</title></g><g style="mix-blend-mode: multiply;"><path d="M320,94.36340155412063C470,94.36340155412063,470,143.46459450585525,620,143.46459450585525" stroke="#e76f51" stroke-width="45.6498194155631"/><title>Yes → Excellent: 20053</title></g><g style="mix-blend-mode: multiply;"><path d="M320,324.9714348254351C470,324.9714348254351,470,21.01057239794232,620,21.01057239794232" stroke="#e9c46a" stroke-width="9.37673196891759"/><title>No → Poor: 4119</title></g><g style="mix-blend-mode: multiply;"><path d="M630,691.7153551493926C780,691.7153551493926,780,679.7153551493925,930,679.7153551493925" stroke="#99d98c" stroke-width="136.56928970121484"/><title>Very good → Female: 59992</title></g><g style="mix-blend-mode: multiply;"><path d="M630,51.188967932581726C780,51.188967932581726,780,40.988420707015436,930,40.988420707015436" stroke="#168aad" stroke-width="34.980059100361174"/><title>Fair → Male: 15366</title></g><g style="mix-blend-mode: multiply;"><path d="M630,437.48565174564953C780,437.48565174564953,780,556.109357557185,930,556.109357557185" stroke="#52b69a" stroke-width="110.64270548320019"/><title>Good → Female: 48603</title></g><g style="mix-blend-mode: multiply;"><path d="M630,90.65934114041801C780,90.65934114041801,780,402.1797964320893,930,402.1797964320893" stroke="#168aad" stroke-width="43.960687315311375"/><title>Fair → Female: 19311</title></g><g style="mix-blend-mode: multiply;"><path d="M630,331.4835066214293C780,331.4835066214293,780,184.69440735471164,930,184.69440735471164" stroke="#52b69a" stroke-width="101.36158476524024"/><title>Good → Male: 44526</title></g><g style="mix-blend-mode: multiply;"><path d="M630,5.749195578417311C780,5.749195578417311,780,17.749195578417424,930,17.749195578417424" stroke="#184e77" stroke-width="11.498391156834849"/><title>Poor → Male: 5051</title></g><g style="mix-blend-mode: multiply;"><path d="M630,562.1188573930175C780,562.1188573930175,780,296.6870526430995,930,296.6870526430995" stroke="#99d98c" stroke-width="122.62370581153553"/><title>Very good → Male: 53866</title></g><g style="mix-blend-mode: multiply;"><path d="M630,158.40726715552142C780,158.40726715552142,780,96.24603261464377,930,96.24603261464377" stroke="#d9ed92" stroke-width="75.53516471489549"/><title>Excellent → Male: 33181</title></g><g style="mix-blend-mode: multiply;"><path d="M630,18.598664769617926C780,18.598664769617926,780,373.09917916165045,930,373.09917916165045" stroke="#184e77" stroke-width="14.20054722556638"/><title>Poor → Female: 6238</title></g><g style="mix-blend-mode: multiply;"><path d="M630,234.48878187588917C780,234.48878187588917,780,462.474072452665,930,462.474072452665" stroke="#d9ed92" stroke-width="76.62786472584"/><title>Excellent → Female: 33661</title></g></g><g><text x="616" y="12.849469191200512" text-anchor="end"><tspan alignment-baseline="middle" x="616" style="font-family: Arial, sans-serif; font-size: 10px; fill: black; font-weight: bold;">Poor</tspan></text><text x="616" y="73.16931159023741" text-anchor="end"><tspan alignment-baseline="middle" x="616" style="font-family: Arial, sans-serif; font-size: 10px; fill: black; font-weight: bold;">Fair</tspan></text><text x="616" y="196.72119951844144" text-anchor="end"><tspan alignment-baseline="middle" x="616" style="font-family: Arial, sans-serif; font-size: 10px; fill: black; font-weight: bold;">Excellent</tspan></text><text x="616" y="386.80485936302944" text-anchor="end"><tspan alignment-baseline="middle" x="616" style="font-family: Arial, sans-serif; font-size: 10px; fill: black; font-weight: bold;">Good</tspan></text><text x="616" y="630.4035022436249" text-anchor="end"><tspan alignment-baseline="middle" x="616" style="font-family: Arial, sans-serif; font-size: 10px; fill: black; font-weight: bold;">Very good</tspan></text><text x="324" y="162.14153442048814" text-anchor="start"><tspan alignment-baseline="middle" x="324" style="font-family: Arial, sans-serif; font-size: 10px; fill: black; font-weight: bold;">Yes</tspan></text><text x="14" y="184.99945277443362" text-anchor="start"><tspan alignment-baseline="middle" x="14" style="font-family: Arial, sans-serif; font-size: 10px; fill: black; font-weight: bold;">Male</tspan></text><text x="926" y="184.99945277443362" text-anchor="end"><tspan alignment-baseline="middle" x="926" style="font-family: Arial, sans-serif; font-size: 10px; fill: black; font-weight: bold;">Male</tspan></text><text x="14" y="556.9994527744336" text-anchor="start"><tspan alignment-baseline="middle" x="14" style="font-family: Arial, sans-serif; font-size: 10px; fill: black; font-weight: bold;">Female</tspan></text><text x="926" y="556.9994527744336" text-anchor="end"><tspan alignment-baseline="middle" x="926" style="font-family: Arial, sans-serif; font-size: 10px; fill: black; font-weight: bold;">Female</tspan></text><text x="324" y="534.1415344204881" text-anchor="start"><tspan alignment-baseline="middle" x="324" style="font-family: Arial, sans-serif; font-size: 10px; fill: black; font-weight: bold;">No</tspan></text></g><g><text x="625" y="-4.000000000000114" text-anchor="middle" style="font-family: Arial, sans-serif; font-size: 12px; fill: rgb(123, 123, 123); font-weight: bold;">GenHealth</text><text x="315" y="8" text-anchor="middle" style="font-family: Arial, sans-serif; font-size: 12px; fill: rgb(123, 123, 123); font-weight: bold;">Smoking</text><text x="5" y="8" text-anchor="middle" style="font-family: Arial, sans-serif; font-size: 12px; fill: rgb(123, 123, 123); font-weight: bold;">Sex</text><text x="935" y="8" text-anchor="middle" style="font-family: Arial, sans-serif; font-size: 12px; fill: rgb(123, 123, 123); font-weight: bold;">Sex2</text></g></g></svg>